<?xml version="1.0" standalone="no"?>
<!DOCTYPE svg PUBLIC "-//W3C//DTD SVG 20010904//EN"
 "http://www.w3.org/TR/2001/REC-SVG-20010904/DTD/svg10.dtd">
<svg version="1.0" xmlns="http://www.w3.org/2000/svg"
 width="196.000000pt" height="196.000000pt" viewBox="0 0 196.000000 196.000000"
 preserveAspectRatio="xMidYMid meet">
<metadata>
Created by potrace 1.11, written by Peter Selinger 2001-2013
</metadata>
<g transform="translate(0.000000,196.000000) scale(0.100000,-0.100000)"
fill="#000000" stroke="none">
<path d="M1270 1697 c0 -10 -16 -13 -62 -12 -35 1 -66 -3 -70 -8 -3 -6 -22
-10 -41 -9 -22 1 -37 -4 -41 -13 -3 -8 -14 -12 -29 -9 -15 2 -27 -1 -30 -10
-3 -8 -16 -12 -31 -11 -14 2 -26 0 -26 -3 0 -10 -54 -33 -79 -35 -12 -1 -24
-10 -27 -20 -3 -10 -8 -16 -11 -13 -4 3 -22 -4 -42 -16 -20 -13 -37 -22 -38
-20 -2 1 -3 0 -3 -3 -1 -9 -55 -61 -61 -58 -4 2 -10 -4 -13 -13 -5 -13 -2 -15
14 -11 11 3 23 1 26 -4 3 -5 10 -7 15 -3 5 3 7 10 4 15 -4 5 7 9 22 9 16 0 34
5 41 12 7 7 12 8 12 4 0 -5 7 -3 15 4 12 10 15 10 15 0 0 -10 3 -10 14 -1 10
9 16 9 21 1 5 -8 14 -6 31 5 19 12 56 15 196 14 108 0 177 -4 185 -11 8 -6 49
-10 98 -9 55 2 85 -2 85 -8 0 -6 7 -11 15 -11 8 0 15 -4 15 -10 0 -5 25 -10
56 -10 44 0 60 -4 74 -20 10 -11 30 -21 46 -22 16 -1 34 -6 41 -11 6 -4 22 -7
35 -5 14 2 22 -2 20 -9 -1 -8 9 -13 26 -13 23 0 31 7 43 37 8 20 13 43 11 51
-2 8 1 11 7 7 7 -4 11 4 11 19 0 17 6 26 16 26 8 0 12 5 9 11 -10 15 4 61 15
54 14 -8 13 8 -1 22 -8 8 -5 14 10 22 12 7 21 20 21 31 0 14 -7 18 -31 18 -17
-1 -34 3 -37 9 -4 5 -29 9 -56 9 -27 -1 -54 4 -60 9 -6 6 -37 11 -70 10 -39 0
-60 4 -63 12 -8 19 -343 19 -343 0z"/>
<path d="M990 1432 c-30 -1 -65 -7 -77 -14 -12 -6 -31 -8 -42 -5 -11 3 -28 -1
-38 -9 -10 -7 -30 -14 -45 -14 -16 0 -28 -4 -28 -9 0 -5 -11 -8 -25 -6 -14 1
-25 -1 -25 -6 0 -10 -59 -39 -81 -39 -10 0 -25 -10 -33 -22 -9 -12 -18 -19
-22 -16 -13 13 -187 -160 -180 -179 3 -7 1 -13 -5 -13 -6 0 -17 -7 -25 -15 -9
-8 -13 -15 -9 -15 3 0 0 -10 -7 -22 -6 -13 -13 -29 -14 -37 -2 -8 -6 -17 -11
-20 -16 -12 -15 -51 2 -51 9 0 13 5 10 10 -3 6 0 10 8 10 8 0 20 7 27 15 7 8
16 13 20 10 5 -3 12 4 15 16 5 14 13 19 26 16 10 -3 19 -1 19 5 0 5 7 16 15
24 8 9 15 13 15 9 0 -3 11 2 24 10 13 9 28 15 32 13 5 -1 19 4 32 11 13 7 30
10 38 7 8 -3 17 0 20 8 3 9 18 13 40 11 22 -1 34 2 34 11 0 8 8 11 22 9 12 -3
27 0 35 6 7 7 13 8 13 3 0 -11 130 -11 148 -1 6 5 12 4 12 -1 0 -5 30 -8 67
-6 40 2 73 -1 81 -8 7 -7 31 -11 53 -11 23 0 43 -5 45 -11 2 -6 20 -11 39 -10
19 1 39 -4 45 -11 6 -8 22 -12 35 -9 13 2 30 -2 38 -10 11 -11 17 -12 26 -3 8
8 11 8 11 -1 0 -7 7 -12 15 -12 8 0 15 -5 15 -10 0 -6 3 -9 8 -8 14 3 91 -23
98 -33 3 -6 12 -8 20 -5 7 3 16 1 19 -5 4 -5 10 -7 15 -4 4 3 13 -1 19 -9 7
-8 23 -17 37 -20 14 -4 22 -11 19 -15 -3 -5 5 -7 17 -3 14 3 19 2 14 -6 -4 -7
-4 -12 1 -12 18 1 34 18 36 41 0 13 5 27 9 30 5 3 10 19 12 35 1 16 7 28 13
27 6 -1 10 5 8 15 -1 9 3 31 9 47 7 17 11 40 10 52 -1 12 5 24 12 27 8 3 11
12 8 21 -3 8 -1 15 5 15 6 0 11 7 11 15 0 16 -39 36 -53 28 -4 -2 -14 3 -22
11 -9 8 -23 12 -32 9 -9 -4 -19 1 -24 10 -6 10 -18 14 -33 11 -15 -2 -26 2
-29 10 -4 10 -15 13 -31 10 -15 -2 -26 0 -26 6 0 5 -13 10 -30 10 -18 0 -30 5
-30 13 0 9 -12 12 -40 10 -22 -2 -40 2 -40 7 0 6 -22 10 -48 10 -26 0 -53 5
-59 11 -7 7 -37 12 -67 11 -31 0 -56 4 -56 10 0 5 -5 6 -10 3 -6 -4 -17 -1
-25 5 -9 8 -15 8 -15 2 0 -9 -55 -10 -76 -1 -5 2 -34 3 -64 1z"/>
<path d="M717 1083 c-4 -6 -18 -9 -32 -8 -15 2 -25 -2 -25 -10 0 -14 -17 -15
-37 -2 -14 9 -15 3 -15 -71 0 -24 6 -49 12 -57 6 -8 8 -20 4 -26 -4 -7 -3 -9
4 -5 6 3 14 -4 18 -16 7 -22 114 -136 114 -122 0 4 8 0 18 -9 17 -15 21 -17
43 -17 5 0 8 -4 5 -9 -3 -4 45 -7 106 -6 75 1 113 6 116 13 2 7 8 10 13 6 5
-3 12 2 15 10 3 9 10 13 15 10 5 -3 9 0 9 5 0 6 18 28 40 48 30 26 37 38 28
44 -7 5 -19 2 -28 -5 -8 -8 -23 -12 -33 -11 -9 2 -24 -6 -32 -18 -8 -12 -15
-17 -15 -12 0 6 -27 10 -59 9 -43 -1 -62 3 -65 13 -3 8 -10 12 -14 9 -13 -8
-117 102 -117 125 0 11 -6 23 -13 28 -7 4 -12 12 -10 17 1 5 -3 19 -10 30 -6
12 -8 25 -4 29 4 4 -3 6 -15 3 -12 -3 -24 -1 -26 5 -2 8 -5 8 -10 0z"/>
<path d="M114 871 c3 -5 0 -11 -8 -14 -9 -4 -12 -14 -9 -26 3 -13 0 -23 -9
-26 -10 -4 -13 -15 -11 -29 3 -13 -1 -34 -8 -47 -13 -23 -14 -28 -17 -57 -1
-7 -7 -10 -12 -7 -6 4 -10 -23 -10 -74 0 -80 0 -81 25 -81 14 0 25 -4 25 -10
0 -5 11 -10 24 -10 14 0 28 -4 31 -10 3 -5 15 -10 26 -10 10 0 19 -4 19 -10 0
-5 16 -10 35 -10 19 0 35 -4 35 -9 0 -5 11 -11 25 -13 14 -3 25 -1 25 5 0 6 6
3 14 -8 8 -12 20 -16 35 -12 12 3 28 -1 37 -10 9 -10 27 -14 49 -11 19 2 35 0
35 -5 0 -4 4 -6 9 -2 5 3 13 0 16 -5 4 -6 17 -10 28 -9 37 2 48 -1 42 -11 -4
-7 50 -10 154 -10 102 0 161 4 163 10 2 6 29 12 60 12 35 1 59 7 62 14 3 7 14
10 24 7 11 -2 23 0 26 6 4 6 20 11 37 11 16 0 29 3 29 8 0 8 57 35 64 30 2 -2
13 6 25 16 12 11 21 15 21 10 1 -5 7 2 15 16 8 14 14 22 15 19 0 -3 24 17 53
45 29 28 51 54 50 58 -2 4 6 9 16 13 11 3 18 12 15 19 -3 8 5 21 17 29 12 9
19 22 17 29 -3 7 1 19 8 26 8 7 14 9 14 5 1 -19 20 24 20 45 0 12 4 22 10 22
5 0 10 3 9 8 -3 17 14 51 22 46 5 -3 6 2 3 10 -9 22 -20 20 -42 -9 -11 -14
-25 -25 -32 -25 -6 0 -9 -4 -5 -9 3 -5 -4 -12 -15 -16 -11 -4 -18 -11 -15 -16
3 -5 -12 -16 -35 -25 -22 -9 -38 -19 -36 -22 6 -5 -40 -32 -56 -32 -5 0 -16
-7 -25 -15 -8 -8 -18 -13 -23 -10 -4 3 -20 -1 -35 -9 -15 -8 -34 -12 -41 -9
-8 3 -16 -1 -19 -9 -4 -9 -19 -13 -51 -11 -28 2 -46 -2 -49 -10 -4 -8 -31 -12
-93 -10 -107 2 -104 1 -98 12 3 4 -14 8 -38 8 -24 0 -50 4 -57 9 -8 5 -34 10
-58 11 -24 0 -47 6 -51 13 -4 7 -20 10 -38 7 -21 -3 -32 0 -36 9 -4 9 -15 13
-31 10 -17 -3 -25 0 -25 9 0 8 -9 12 -26 10 -14 -1 -28 3 -30 10 -3 7 -13 12
-22 10 -9 -1 -27 4 -40 12 -12 7 -27 11 -33 8 -5 -4 -8 -1 -7 6 2 6 -9 12 -25
13 -16 1 -32 8 -37 16 -6 8 -10 12 -10 7 0 -10 -83 32 -92 47 -4 6 -8 8 -8 3
0 -4 -13 -1 -30 8 -33 17 -44 19 -36 6z"/>
</g>
</svg>
